<svg width="17" height="17" viewBox="0 0 17 17" fill="none" xmlns="http://www.w3.org/2000/svg">
<path d="M5.59167 4.75418L7.5 2.83751V10.8292C7.5 11.0502 7.5878 11.2622 7.74408 11.4184C7.90036 11.5747 8.11232 11.6625 8.33333 11.6625C8.55435 11.6625 8.76631 11.5747 8.92259 11.4184C9.07887 11.2622 9.16667 11.0502 9.16667 10.8292V2.83751L11.075 4.75418C11.1525 4.83228 11.2446 4.89428 11.3462 4.93659C11.4477 4.97889 11.5567 5.00068 11.6667 5.00068C11.7767 5.00068 11.8856 4.97889 11.9871 4.93659C12.0887 4.89428 12.1809 4.83228 12.2583 4.75418C12.3364 4.67671 12.3984 4.58454 12.4407 4.48299C12.4831 4.38144 12.5048 4.27252 12.5048 4.16251C12.5048 4.0525 12.4831 3.94358 12.4407 3.84203C12.3984 3.74048 12.3364 3.64831 12.2583 3.57084L8.925 0.237511C8.84575 0.161644 8.75229 0.102173 8.65 0.0625113C8.44712 -0.0208371 8.21955 -0.0208371 8.01667 0.0625113C7.91437 0.102173 7.82092 0.161644 7.74167 0.237511L4.40833 3.57084C4.33063 3.64854 4.269 3.74079 4.22695 3.8423C4.1849 3.94382 4.16326 4.05263 4.16326 4.16251C4.16326 4.27239 4.1849 4.3812 4.22695 4.48272C4.269 4.58424 4.33063 4.67648 4.40833 4.75418C4.48603 4.83188 4.57827 4.89351 4.67979 4.93556C4.78131 4.97761 4.89012 4.99925 5 4.99925C5.10988 4.99925 5.21869 4.97761 5.32021 4.93556C5.42173 4.89351 5.51397 4.83188 5.59167 4.75418ZM15.8333 9.99584C15.6123 9.99584 15.4004 10.0836 15.2441 10.2399C15.0878 10.3962 15 10.6082 15 10.8292V14.1625C15 14.3835 14.9122 14.5955 14.7559 14.7518C14.5996 14.908 14.3877 14.9958 14.1667 14.9958H2.5C2.27899 14.9958 2.06702 14.908 1.91074 14.7518C1.75446 14.5955 1.66667 14.3835 1.66667 14.1625V10.8292C1.66667 10.6082 1.57887 10.3962 1.42259 10.2399C1.26631 10.0836 1.05435 9.99584 0.833333 9.99584C0.61232 9.99584 0.400358 10.0836 0.244078 10.2399C0.0877973 10.3962 0 10.6082 0 10.8292V14.1625C0 14.8256 0.263392 15.4614 0.732233 15.9303C1.20107 16.3991 1.83696 16.6625 2.5 16.6625H14.1667C14.8297 16.6625 15.4656 16.3991 15.9344 15.9303C16.4033 15.4614 16.6667 14.8256 16.6667 14.1625V10.8292C16.6667 10.6082 16.5789 10.3962 16.4226 10.2399C16.2663 10.0836 16.0543 9.99584 15.8333 9.99584Z" fill="black" fill-opacity="0.8"/>
</svg>
